<svg xmlns="http://www.w3.org/2000/svg" xmlns:xl="http://www.w3.org/1999/xlink" width="161" height="60" version="1.1" viewBox="184 193 161 60"><metadata>Produced by OmniGraffle 7.12.1</metadata><g id="Canvas_1" fill="none" fill-opacity="1" stroke="none" stroke-dasharray="none" stroke-opacity="1"><title>Canvas 1</title><g id="Canvas_1: Layer 1"><title>Layer 1</title><g id="Graphic_3"><rect width="1.185" height="59.251" x="184.3" y="193.12" fill="#000"/></g><g id="Graphic_14"><rect width="1.185" height="39.84" x="204.339" y="212.531" fill="#000"/></g><g id="Graphic_13"><rect width="1.185" height="39.84" x="244.104" y="212.531" fill="#000"/></g><g id="Graphic_12"><rect width="1.185" height="39.84" x="284.184" y="212.531" fill="#000"/></g><g id="Graphic_20"><rect width="1.185" height="47.401" x="224.22" y="204.97" fill="#000"/></g><g id="Graphic_19"><rect width="1.185" height="47.401" x="263.986" y="204.97" fill="#000"/></g><g id="Graphic_18"><rect width="1.185" height="47.401" x="304.065" y="204.97" fill="#000"/></g><g id="Graphic_17"><rect width="1.185" height="39.84" x="204.339" y="212.531" fill="#000"/></g><g id="Graphic_16"><rect width="1.185" height="39.84" x="244.104" y="212.531" fill="#000"/></g><g id="Graphic_15"><rect width="1.185" height="39.84" x="284.184" y="212.531" fill="#000"/></g><g id="Graphic_26"><rect width="1.185" height="39.84" x="234.085" y="212.531" fill="#000"/></g><g id="Graphic_25"><rect width="1.185" height="39.84" x="254.124" y="212.531" fill="#000"/></g><g id="Graphic_24"><rect width="1.185" height="39.84" x="294.203" y="212.531" fill="#000"/></g><g id="Graphic_23"><rect width="1.185" height="39.84" x="194.319" y="212.531" fill="#000"/></g><g id="Graphic_22"><rect width="1.185" height="39.84" x="214.477" y="212.531" fill="#000"/></g><g id="Graphic_21"><rect width="1.185" height="39.84" x="274.165" y="212.531" fill="#000"/></g><g id="Graphic_29"><rect width="1.185" height="39.84" x="324.261" y="212.531" fill="#000"/></g><g id="Graphic_28"><rect width="1.185" height="39.84" x="334.281" y="212.531" fill="#000"/></g><g id="Graphic_27"><rect width="1.185" height="39.84" x="314.242" y="212.531" fill="#000"/></g></g></g></svg>
